<svg height='100px' width='100px'  fill="#ffffff" xmlns="http://www.w3.org/2000/svg" xmlns:xlink="http://www.w3.org/1999/xlink" xml:space="preserve" version="1.1" style="shape-rendering:geometricPrecision;text-rendering:geometricPrecision;image-rendering:optimizeQuality;" viewBox="0 0 451 451" x="0px" y="0px" fill-rule="evenodd" clip-rule="evenodd"><defs><style type="text/css">
   
    .fil0 {fill:rgb(85, 85, 85)}
   
  </style></defs><g><path class="fil0" d="M14 369l144 -143 -144 -144c-19,-19 -19,-49 0,-68 19,-19 49,-19 68,0l144 144 143 -144c19,-19 49,-19 68,0 19,19 19,49 0,68l-144 144 144 143c19,19 19,49 0,68 -18,19 -49,19 -68,0l-143 -144 -144 144c-19,19 -49,19 -68,0 -19,-18 -19,-49 0,-68z"></path></g></svg>