<svg height='100px' width='100px'  fill="#ffffff" xmlns="http://www.w3.org/2000/svg" xmlns:xlink="http://www.w3.org/1999/xlink" version="1.1" x="0px" y="0px" viewBox="0 0 100 100" enable-background="new 0 0 100 100" xml:space="preserve"><g><path d="M91.685,87.007l-19.877-19.88c-0.691-0.691-1.609-0.999-2.513-0.951L60.617,57.5c4.774-5.508,7.403-12.456,7.403-19.819   c0-8.102-3.155-15.72-8.886-21.451c-5.728-5.726-13.346-8.883-21.45-8.883c-8.103,0-15.723,3.158-21.452,8.883   C10.5,21.961,7.346,29.579,7.346,37.684c0,8.105,3.154,15.723,8.885,21.451c5.729,5.728,13.348,8.886,21.452,8.886   c7.362,0,14.308-2.63,19.815-7.403l8.68,8.68c-0.046,0.903,0.263,1.82,0.953,2.508l19.875,19.877   c0.646,0.646,1.494,0.97,2.339,0.97s1.693-0.324,2.339-0.97C92.977,90.394,92.977,88.299,91.685,87.007z M56.016,56.017   c-4.896,4.896-11.407,7.594-18.332,7.594c-6.926,0-13.435-2.698-18.333-7.594c-4.896-4.899-7.593-11.409-7.593-18.333   c0-6.927,2.697-13.437,7.593-18.333c4.897-4.899,11.409-7.594,18.333-7.594c6.926,0,13.437,2.695,18.332,7.594   c4.899,4.896,7.594,11.406,7.594,18.33C63.61,44.608,60.915,51.118,56.016,56.017z"></path></g></svg>