<svg height='100px' width='100px'  fill="#ffffff" xmlns="http://www.w3.org/2000/svg" xmlns:xlink="http://www.w3.org/1999/xlink" viewBox="0 0 36 36" version="1.1" x="0px" y="0px"><title>Components / Graphics / Icons / help-icon</title><desc>Created with Sketch.</desc><g stroke="none" stroke-width="1" fill="none" fill-rule="evenodd"><path d="M9.48214286,9.53571429 C11.8392975,7.17855964 14.6785548,6 18,6 C21.3214452,6 24.151774,7.16963116 26.4910714,9.50892857 C28.8303688,11.848226 30,14.6785548 30,18 C30,21.3214452 28.8303688,24.151774 26.4910714,26.4910714 C24.151774,28.8303688 21.3214452,30 18,30 C14.6785548,30 11.848226,28.8303688 9.50892857,26.4910714 C7.16963116,24.151774 6,21.3214452 6,18 C6,14.6785548 7.16070268,11.8571545 9.48214286,9.53571429 Z M19.0714286,23.5178571 C19.107143,23.0535691 18.9732158,22.6607159 18.6696429,22.3392857 C18.3660699,22.0178555 17.9821452,21.8571429 17.5178571,21.8571429 C17.0892836,21.8571429 16.7142873,21.9999986 16.3928571,22.2857143 C16.071427,22.57143 15.9107143,22.9464263 15.9107143,23.4107143 C15.9107143,23.8750023 16.05357,24.2589271 16.3392857,24.5625 C16.6250014,24.8660729 16.9821407,25.0178571 17.4107143,25.0178571 C17.8750023,25.0178571 18.2678555,24.8839299 18.5892857,24.6160714 C18.9107143,24.3482129 19.0714286,23.9821452 19.0714286,23.5178571 Z M21.6964286,16.6607143 C22.1250021,16.0535684 22.3392857,15.4107177 22.3392857,14.7321429 C22.3392857,13.5535714 21.8928616,12.6250034 21,11.9464286 C20.1428529,11.3035682 19.0357211,10.9821429 17.6785714,10.9821429 C16.6785664,10.9821429 15.8392891,11.2142834 15.1607143,11.6785714 C14.1607143,12.3571463 13.6607143,13.5714198 13.6607143,15.3214286 L16.2857143,15.3214286 C16.2857143,14.5714248 16.3571421,14.0892868 16.5,13.875 C16.8214302,13.339283 17.2857112,13.0714286 17.8928571,13.0714286 C18.500003,13.0714286 18.9464271,13.2678552 19.2321429,13.6607143 C19.5178586,14.0535734 19.6607143,14.4642836 19.6607143,14.8928571 C19.6607143,15.1785729 19.5178586,15.5357121 19.2321429,15.9642857 C19.1607143,16.1071436 18.9821443,16.2857132 18.6964286,16.5 C17.7678525,17.035717 17.1428588,17.5714259 16.8214286,18.1071429 C16.5357129,18.5714309 16.3571432,19.3035664 16.2857143,20.3035714 C16.2857143,20.4464293 16.3571421,20.5178571 16.5,20.5178571 L18.5892857,20.5178571 C18.767858,20.5178571 18.8571429,20.4464293 18.8571429,20.3035714 C18.8571429,19.9107123 18.8928568,19.57143 18.9642857,19.2857143 C19.0714291,18.9642841 19.2857127,18.6607157 19.6071429,18.375 L20.3571429,17.8928571 C21.0357177,17.3928546 21.4821418,16.9821429 21.6964286,16.6607143 Z" fill="#ffffff" fill-rule="nonzero"></path></g></svg>