<svg height='100px' width='100px'  fill="#ffffff" xmlns="http://www.w3.org/2000/svg" xmlns:xlink="http://www.w3.org/1999/xlink" version="1.1" x="0px" y="0px" viewBox="0 0 100 100" style="enable-background:new 0 0 100 100;" xml:space="preserve"><g><path d="M84.4,21.4L49.9,55.9L39.3,43.8c-2.2-2.5-6-2.7-8.5-0.5c-2.5,2.2-2.7,6-0.5,8.5l14.9,16.9c1.1,1.2,2.7,2,4.3,2   c0.1,0,0.1,0,0.2,0c1.6,0,3.1-0.6,4.2-1.8l39-39c2.3-2.3,2.3-6.1,0-8.5C90.6,19.1,86.8,19.1,84.4,21.4z"></path><path d="M89,44c-3.3,0-6,2.7-6,6c0,1.4-0.1,2.8-0.3,4.2C80.7,70,67,82,51,82c-17.6,0-32-14.4-32-32s14.4-32,32-32   c5.7,0,11.3,1.5,16.1,4.4c2.9,1.7,6.5,0.7,8.2-2.1c1.7-2.9,0.7-6.5-2.1-8.2C66.5,8.1,58.8,6,51,6C26.7,6,7,25.7,7,50s19.7,44,44,44   c22,0,40.8-16.4,43.6-38.3c0.2-1.9,0.4-3.8,0.4-5.7C95,46.7,92.3,44,89,44z"></path></g></svg>