<svg height='100px' width='100px'  fill="#ffffff" xmlns="http://www.w3.org/2000/svg" xmlns:xlink="http://www.w3.org/1999/xlink" version="1.0" x="0px" y="0px" viewBox="0 0 100 100" enable-background="new 0 0 100 100" xml:space="preserve"><path d="M61.3030243,19.7049179c1.490078,2.1639347-1.7937889,4.4227772-3.2838631,2.2683334  c-0.6169128-0.8921471-1.5944786-1.471096-2.7049179-1.471096c-2.3917198,0-10.7247658-0.3416729-12.0440063,0.3701477  c-1.205349,0.6453838-2.0785141,2.9232101-3.9956856,1.6039696c-2.6954269-1.8602257,1.4236412-5.9698029,5.4857635-5.9698029  h10.5539284C57.7344322,16.5064697,59.9363289,17.7402916,61.3030243,19.7049179z"></path><path d="M18.6032829,23.5962029c-2.0120792,1.6704063-4.5651426-1.4046593-2.5435715-3.0750656  c0.9396019-0.7782555,1.7368412-1.6798954,2.7428818-1.6798954h8.7696285  c0.9301128-6.5582399,6.4728222-11.5409842,13.2778263-11.5694571v-0.009491l18.5642815,0.009491  c6.8144913,0.2088008,12.1578903,5.058672,13.0690231,11.5694571h8.7791214c0.5220032,0,0.9870605,0.1993103,1.3477097,0.5220013  l9.6617813,7.9818821c0.4840393,0.3986187,0.7308044,0.9680748,0.7308044,1.5375309v5.7704926  c0,2.1924057-1.9456482,3.8533211-4.1380539,3.8533211H11.2003489c-2.1829166,0-4.1380501-1.6609154-4.1380501-3.8533211  c0-7.8490086-0.8541846-5.9887829,3.6255398-9.6997414c2.0215702-1.6704063,4.5651417,1.4046593,2.5435715,3.0750656  l-2.1639338,1.793787v4.6695423h77.9396057v-4.6695423l-8.4564285-6.9853325h-9.9180298v-0.009491  c-3.4547043,0-0.4840393-4.4512501-4.7170029-8.7696285c-1.6704025-1.6988792-4.1285553-2.8472824-6.6911087-2.7998276H40.8500481  v-0.009491c-5.2959442,0.0284729-9.4245052,4.2709227-9.4150143,9.5858498c0,1.1104393-0.8921471,2.0025883-1.9930973,2.0025883  h-9.9180317L18.6032829,23.5962029z"></path><path d="M14.6550512,42.9197578c-0.1803274-2.6194992,3.7963762-2.9042282,3.9861956-0.275238l2.9896469,41.7221794  c0.1708355,2.3252792,1.8412418,4.3658295,4.2329578,4.3658295H74.20121c2.4012146,0,4.0716171-2.0405502,4.2329636-4.3658295  l2.9991379-41.7221794c0.1803284-2.6289902,4.1665192-2.3442612,3.9766998,0.275238l-2.9896469,41.7316704  c-0.3131943,4.4132843-3.6919708,8.0862808-8.2191544,8.0862808H25.8638515c-4.5271778,0-7.8964615-3.6729965-8.2096634-8.0862808  L14.6550512,42.9197578z"></path></svg>